<svg width="400" height="400" xmlns="http://www.w3.org/2000/svg">
  <defs>
    <linearGradient id="grad3" x1="0%" y1="0%" x2="100%" y2="100%">
      <stop offset="0%" style="stop-color:#1e3a1e;stop-opacity:1" />
      <stop offset="100%" style="stop-color:#2d5f2d;stop-opacity:1" />
    </linearGradient>
  </defs>
  
  <rect width="400" height="400" fill="url(#grad3)"/>
  
  <!-- Hoodie body -->
  <path d="M 120 140 L 120 340 L 280 340 L 280 140 Z" fill="#3d5a3d"/>
  
  <!-- Hood -->
  <path d="M 100 140 Q 200 80, 300 140 L 280 140 Q 200 100, 120 140 Z" fill="#4a6b4a"/>
  
  <!-- Drawstrings -->
  <line x1="180" y1="140" x2="160" y2="170" stroke="#f5e6d3" stroke-width="3"/>
  <line x1="220" y1="140" x2="240" y2="170" stroke="#f5e6d3" stroke-width="3"/>
  <circle cx="160" cy="175" r="5" fill="#f5e6d3"/>
  <circle cx="240" cy="175" r="5" fill="#f5e6d3"/>
  
  <!-- Pocket -->
  <rect x="160" y="220" width="80" height="60" rx="5" fill="#2d4a2d"/>
  
  <!-- Forest design -->
  <path d="M 180 250 L 190 230 L 200 250 Z" fill="#7fa87f"/>
  <path d="M 200 250 L 210 235 L 220 250 Z" fill="#6b946b"/>
  <rect x="188" y="250" width="4" height="15" fill="#5a4a3a"/>
  <rect x="208" y="250" width="4" height="15" fill="#5a4a3a"/>
  
  <text x="200" y="370" font-family="Arial, sans-serif" font-size="22" fill="#ffffff" text-anchor="middle" font-weight="bold">Forest Hoodie</text>
</svg>
