<svg width="400" height="400" xmlns="http://www.w3.org/2000/svg">
  <defs>
    <linearGradient id="grad4" x1="0%" y1="0%" x2="100%" y2="100%">
      <stop offset="0%" style="stop-color:#5d4037;stop-opacity:1" />
      <stop offset="100%" style="stop-color:#8d6e63;stop-opacity:1" />
    </linearGradient>
  </defs>
  
  <rect width="400" height="400" fill="url(#grad4)"/>
  
  <!-- Beanie -->
  <path d="M 100 220 Q 100 160, 200 140 Q 300 160, 300 220 L 300 260 Q 300 280, 280 290 Q 250 300, 200 300 Q 150 300, 120 290 Q 100 280, 100 260 Z" fill="#d84315"/>
  
  <!-- Knit texture lines -->
  <line x1="100" y1="180" x2="300" y2="180" stroke="#bf360c" stroke-width="2" opacity="0.5"/>
  <line x1="100" y1="200" x2="300" y2="200" stroke="#bf360c" stroke-width="2" opacity="0.5"/>
  <line x1="100" y1="220" x2="300" y2="220" stroke="#bf360c" stroke-width="2" opacity="0.5"/>
  <line x1="100" y1="240" x2="300" y2="240" stroke="#bf360c" stroke-width="2" opacity="0.5"/>
  <line x1="100" y1="260" x2="300" y2="260" stroke="#bf360c" stroke-width="2" opacity="0.5"/>
  
  <!-- Pom-pom on top -->
  <circle cx="200" cy="135" r="20" fill="#ffab91"/>
  <circle cx="190" cy="128" r="8" fill="#ff8a65"/>
  <circle cx="210" cy="128" r="8" fill="#ff8a65"/>
  <circle cx="200" cy="145" r="8" fill="#ff8a65"/>
  
  <!-- Fold/cuff at bottom -->
  <rect x="100" y="260" width="200" height="30" fill="#c33d14"/>
  
  <!-- Small tree pattern -->
  <path d="M 160 220 L 165 210 L 170 220 Z" fill="#4a7c59"/>
  <path d="M 190 235 L 195 225 L 200 235 Z" fill="#4a7c59"/>
  <path d="M 220 220 L 225 210 L 230 220 Z" fill="#4a7c59"/>
  
  <text x="200" y="350" font-family="Arial, sans-serif" font-size="22" fill="#ffffff" text-anchor="middle" font-weight="bold">Woodland</text>
  <text x="200" y="380" font-family="Arial, sans-serif" font-size="20" fill="#ffffff" text-anchor="middle">Beanie</text>
</svg>
